<svg xmlns="http://www.w3.org/2000/svg" version="1.1" xmlns:xlink="http://www.w3.org/1999/xlink" xmlns:svgjs="http://svgjs.dev/svgjs" width="2000" height="535" viewBox="0 0 2000 535"><g transform="matrix(1,0,0,1,-1.2121203756095156,0.9482625026580536)"><svg viewBox="0 0 396 106" data-background-color="#ffffff" preserveAspectRatio="xMidYMid meet" height="535" width="2000" xmlns="http://www.w3.org/2000/svg" xmlns:xlink="http://www.w3.org/1999/xlink"><g id="tight-bounds" transform="matrix(1,0,0,1,0.2399998343706784,-0.1878800472556179)"><svg viewBox="0 0 395.52 106.37550541891122" height="106.37550541891122" width="395.52"><g><svg viewBox="0 0 577.3119254371253 155.26862826845417" height="106.37550541891122" width="395.52"><g transform="matrix(1,0,0,1,181.79192543712534,21.458978291805174)"><svg viewBox="0 0 395.52 112.35067168484382" height="112.35067168484382" width="395.52"><g id="textblocktransform"><svg viewBox="0 0 395.52 112.35067168484382" height="112.35067168484382" width="395.52" id="textblock"><g><svg viewBox="0 0 395.52 112.35067168484382" height="112.35067168484382" width="395.52"><g transform="matrix(1,0,0,1,0,0)"><svg width="395.52" viewBox="0.95 -40 165.44843349806803 47" height="112.35067168484382" data-palette-color="#373659"><path d="M21.15-34.65L3.45-34.65Q1.7-34.65 1.6-37.2L1.6-37.2Q1.6-39.7 3.45-39.7L3.45-39.7 25.4-39.7Q27.05-39.7 27.95-39.18 28.85-38.65 28.95-37.75L28.95-37.75Q29-36.9 28.93-36.13 28.85-35.35 28.55-34.95L28.55-34.95 8.85-5 26.95-5Q28.8-5 28.8-2.55L28.8-2.55Q28.9 0.05 26.95 0.05L26.95 0.05 4.55 0.05Q1.25 0.05 1-1.95L1-1.95Q0.9-2.8 1-3.53 1.1-4.25 1.4-4.65L1.4-4.65Q2.3-6.05 3.28-7.55 4.25-9.05 5.45-10.85 6.65-12.65 8.13-14.9 9.6-17.15 11.5-20.03 13.4-22.9 15.78-26.5 18.15-30.1 21.15-34.65L21.15-34.65ZM37.8 7L35.2 7Q33.45 7 33.35 4.65L33.35 4.65Q33.35 2.3 35.2 2.3L35.2 2.3 37.4 2.3Q39.15 2.3 39.7 1.25L39.7 1.25 40.4-0.6 40.65-1.4 30.9-26.95 30.9-26.9Q30.5-28.1 31.07-28.95 31.65-29.8 32.85-30.2L32.85-30.2Q33.75-30.45 34.3-30.45L34.3-30.45Q35.75-30.45 36.1-28.75L36.1-28.75 40.05-18.9 43.4-10.7 48.75-28.65Q49.2-30.45 50.85-30.45L50.85-30.45Q51.25-30.45 52.15-30.2L52.15-30.2Q53.35-29.85 53.87-29.05 54.4-28.25 54.1-27.15L54.1-27.15Q51.85-19.5 49.52-11.75 47.2-4 44.95 3.6L44.95 3.6Q44.7 4.15 44.17 4.73 43.65 5.3 42.8 5.83 41.95 6.35 40.7 6.68 39.45 7 37.8 7L37.8 7ZM63.84-21.75L63.84-2.1Q63.84 0.3 61.09 0.3L61.09 0.3Q58.34 0.3 58.34-2.1L58.34-2.1 58.34-22.2Q58.34-24.25 59-25.75 59.65-27.25 61.05-28.2L61.05-28.2Q63.7-30.1 66.34-30.1L66.34-30.1 74.4-30.1Q76.95-30.1 79.7-28.2L79.7-28.2Q82.4-26.3 82.4-22.2L82.4-22.2 82.4-2.1Q82.4 0.3 79.65 0.3L79.65 0.3Q76.9 0.3 76.9-2.1L76.9-2.1 76.9-21.75Q76.9-23.05 76.09-24.25L76.09-24.25 76.15-24.2Q75.5-25.4 73.5-25.4L73.5-25.4 67.25-25.4Q65.2-25.4 64.55-24.2L64.55-24.2Q63.84-23.15 63.84-21.75L63.84-21.75ZM112.89-10.3L112.89-7.95Q112.89-3.85 110.19-1.9L110.19-1.9Q107.54 0 104.89 0L104.89 0 96.49 0Q93.84 0 91.34-1.9L91.34-1.9Q90.14-2.9 89.49-4.42 88.84-5.95 88.84-7.95L88.84-7.95 88.84-22.2Q88.84-26.25 91.34-28.2L91.34-28.2Q92.59-29.1 93.92-29.63 95.24-30.15 96.49-30.15L96.49-30.15 104.89-30.15Q106.09-30.15 107.54-29.68 108.99-29.2 110.24-28.4L110.24-28.4Q111.44-27.55 112.17-26.05 112.89-24.55 112.89-22.5L112.89-22.5 112.89-20Q112.89-17.6 110.14-17.6L110.14-17.6Q107.39-17.6 107.39-20L107.39-20 107.39-22.15Q107.39-23.4 106.62-24.43 105.84-25.45 103.99-25.45L103.99-25.45 97.74-25.45Q95.89-25.45 95.12-24.43 94.34-23.4 94.34-22.15L94.34-22.15 94.34-8Q94.34-6.8 95.12-5.75 95.89-4.7 97.74-4.7L97.74-4.7 103.99-4.7Q105.84-4.7 106.62-5.75 107.39-6.8 107.39-8L107.39-8 107.39-10.3Q107.39-12.65 110.14-12.65L110.14-12.65Q112.89-12.65 112.89-10.3L112.89-10.3ZM140.59-26.5L124.64-8.35 124.64-2Q124.64 0.35 121.89 0.35L121.89 0.35Q119.14 0.35 119.14-2L119.14-2 119.14-37.6Q119.14-40 121.89-40L121.89-40Q124.64-40 124.64-37.6L124.64-37.6 124.64-16.4Q125.89-17.9 127.42-19.63 128.94-21.35 130.47-23.13 131.99-24.9 133.49-26.63 134.99-28.35 136.29-29.85L136.29-29.85 136.29-29.8Q137.19-30.85 138.09-30.85L138.09-30.85Q138.59-30.85 139.06-30.63 139.54-30.4 140.09-30L140.09-30 140.04-30Q141.24-29 141.24-28L141.24-28Q141.24-27.65 141.09-27.23 140.94-26.8 140.59-26.5L140.59-26.5ZM135.84-13.75L141.34-3.35Q141.69-2.7 141.69-2L141.69-2Q141.69-0.7 140.19-0.05L140.19-0.05Q139.19 0.55 138.39 0.55L138.39 0.55Q137.84 0.55 137.34 0.18 136.84-0.2 136.54-0.75L136.54-0.75 131.54-10.4Q131.09-11.15 131.09-11.9L131.09-11.9Q131.09-13.15 132.39-14L132.39-14Q132.74-14.25 133.12-14.45 133.49-14.65 133.94-14.75L133.94-14.75Q134.49-14.85 134.99-14.55 135.49-14.25 135.84-13.75L135.84-13.75ZM149.99 7L147.39 7Q145.64 7 145.54 4.65L145.54 4.65Q145.54 2.3 147.39 2.3L147.39 2.3 149.59 2.3Q151.34 2.3 151.89 1.25L151.89 1.25 152.59-0.6 152.84-1.4 143.09-26.95 143.09-26.9Q142.69-28.1 143.26-28.95 143.84-29.8 145.04-30.2L145.04-30.2Q145.94-30.45 146.49-30.45L146.49-30.45Q147.94-30.45 148.29-28.75L148.29-28.75 152.24-18.9 155.59-10.7 160.94-28.65Q161.39-30.45 163.04-30.45L163.04-30.45Q163.44-30.45 164.34-30.2L164.34-30.2Q165.54-29.85 166.06-29.05 166.59-28.25 166.29-27.15L166.29-27.15Q164.04-19.5 161.71-11.75 159.39-4 157.14 3.6L157.14 3.6Q156.89 4.15 156.36 4.73 155.84 5.3 154.99 5.83 154.14 6.35 152.89 6.68 151.64 7 149.99 7L149.99 7Z" opacity="1" transform="matrix(1,0,0,1,0,0)" fill="#373659" class="wordmark-text-0" data-fill-palette-color="primary" id="text-0"></path></svg></g></svg></g></svg></g></svg></g><g><svg viewBox="0 0 155.26862826845417 155.26862826845417" height="155.26862826845417" width="155.26862826845417"><g><svg></svg></g><g id="icon-0"><svg viewBox="0 0 155.26862826845417 155.26862826845417" height="155.26862826845417" width="155.26862826845417"><g><path transform="scale(1.55269,1.55269)" d="M30 100c-16.569 0-30-13.431-30-30v-40c0-16.569 13.431-30 30-30h40c16.569 0 30 13.431 30 30v40c0 16.569-13.431 30-30 30z" fill="#c8043f" fill-rule="nonzero" stroke="none" stroke-width="1" stroke-linecap="butt" stroke-linejoin="miter" stroke-miterlimit="10" stroke-dasharray="" stroke-dashoffset="0" font-family="none" font-weight="none" font-size="none" text-anchor="none" style="mix-blend-mode: normal" data-fill-palette-color="accent"></path></g><g transform="matrix(1,0,0,1,31.053725653690833,42.698872773824895)"><svg viewBox="0 0 93.1611769610725 69.87088272080437" height="69.87088272080437" width="93.1611769610725"><g><svg xmlns="http://www.w3.org/2000/svg" viewBox="0 1 8 6" x="0" y="0" height="69.87088272080437" width="93.1611769610725" class="icon-cg-0" data-fill-palette-color="quaternary" id="cg-0"><path d="M0.25 0c-0.14 0-0.25 0.11-0.25 0.25v0.75h8v-0.75c0-0.14-0.11-0.25-0.25-0.25h-7.5z m-0.25 2v3.75c0 0.14 0.11 0.25 0.25 0.25h7.5c0.14 0 0.25-0.11 0.25-0.25v-3.75h-8z m1 2h1v1h-1v-1z m2 0h1v1h-1v-1z" transform="translate(0 1)" fill="#ffffff" data-fill-palette-color="quaternary"></path></svg></g></svg></g></svg></g></svg></g></svg></g><defs></defs></svg><rect width="395.52" height="106.37550541891122" fill="none" stroke="none" visibility="hidden"></rect></g></svg></g></svg>