<svg id="visual" viewBox="0 0 1370 770" width="1370" height="770" xmlns="http://www.w3.org/2000/svg" xmlns:xlink="http://www.w3.org/1999/xlink" version="1.1"><rect x="0" y="0" width="1370" height="770" fill="#002233"></rect><path d="M0 414L10.8 378.2C21.7 342.3 43.3 270.7 65 278.5C86.7 286.3 108.3 373.7 130.2 430C152 486.3 174 511.7 195.8 492.2C217.7 472.7 239.3 408.3 261 400.2C282.7 392 304.3 440 326 443.2C347.7 446.3 369.3 404.7 391.2 380C413 355.3 435 347.7 456.8 378.2C478.7 408.7 500.3 477.3 522 483.3C543.7 489.3 565.3 432.7 587 386.8C608.7 341 630.3 306 652.2 321.7C674 337.3 696 403.7 717.8 416.3C739.7 429 761.3 388 783 397.8C804.7 407.7 826.3 468.3 848 485.2C869.7 502 891.3 475 913.2 461.8C935 448.7 957 449.3 978.8 437.2C1000.7 425 1022.3 400 1044 419.5C1065.7 439 1087.3 503 1109 498.7C1130.7 494.3 1152.3 421.7 1174.2 367.8C1196 314 1218 279 1239.8 316.3C1261.7 353.7 1283.3 463.3 1305 510.7C1326.7 558 1348.3 543 1359.2 535.5L1370 528L1370 771L1359.2 771C1348.3 771 1326.7 771 1305 771C1283.3 771 1261.7 771 1239.8 771C1218 771 1196 771 1174.2 771C1152.3 771 1130.7 771 1109 771C1087.3 771 1065.7 771 1044 771C1022.3 771 1000.7 771 978.8 771C957 771 935 771 913.2 771C891.3 771 869.7 771 848 771C826.3 771 804.7 771 783 771C761.3 771 739.7 771 717.8 771C696 771 674 771 652.2 771C630.3 771 608.7 771 587 771C565.3 771 543.7 771 522 771C500.3 771 478.7 771 456.8 771C435 771 413 771 391.2 771C369.3 771 347.7 771 326 771C304.3 771 282.7 771 261 771C239.3 771 217.7 771 195.8 771C174 771 152 771 130.2 771C108.3 771 86.7 771 65 771C43.3 771 21.7 771 10.8 771L0 771Z" fill="#56558B" stroke-linecap="round" stroke-linejoin="miter"></path></svg>